<svg width="1024" height="1024" viewBox="0 0 1024 1024" xmlns="http://www.w3.org/2000/svg">
  <defs>
    <linearGradient id="bg" x1="0" y1="0" x2="1" y2="1">
      <stop offset="0%" stop-color="#4f46e5"/>
      <stop offset="100%" stop-color="#0f172a"/>
    </linearGradient>
    <linearGradient id="plate" x1="0" y1="0" x2="1" y2="1">
      <stop offset="0%" stop-color="#ffffff"/>
      <stop offset="100%" stop-color="#cbd5e1"/>
    </linearGradient>
  </defs>
  <rect width="1024" height="1024" rx="240" fill="url(#bg)"/>
  <circle cx="512" cy="512" r="290" fill="#111827" opacity="0.3"/>
  <rect x="250" y="290" width="524" height="410" rx="64" fill="#0b1120" stroke="#818cf8" stroke-width="18"/>
  <rect x="310" y="360" width="404" height="230" rx="38" fill="url(#plate)"/>
  <rect x="360" y="426" width="130" height="28" rx="14" fill="#4f46e5"/>
  <rect x="360" y="478" width="210" height="28" rx="14" fill="#94a3b8"/>
  <rect x="360" y="530" width="170" height="28" rx="14" fill="#cbd5e1"/>
  <circle cx="640" cy="445" r="34" fill="#f59e0b"/>
  <circle cx="640" cy="525" r="34" fill="#22c55e"/>
  <path d="M760 270c-31 0-56 25-56 56v338c0 31 25 56 56 56s56-25 56-56V326c0-31-25-56-56-56Z" fill="#e2e8f0"/>
  <path d="M196 270c-31 0-56 25-56 56v338c0 31 25 56 56 56s56-25 56-56V326c0-31-25-56-56-56Z" fill="#e2e8f0"/>
  <rect x="330" y="735" width="364" height="76" rx="38" fill="#ffffff"/>
  <text x="512" y="787" text-anchor="middle" font-family="Arial, Helvetica, sans-serif" font-size="58" font-weight="700" fill="#4338ca">KDS</text>
</svg>
